<svg xmlns="http://www.w3.org/2000/svg" viewBox="0 0 22 24"><defs><style>.cls-1{isolation:isolate;}.cls-2,.cls-4{fill:#fff;}.cls-3,.cls-4{mix-blend-mode:overlay;}</style></defs><g class="cls-1"><g id="katman_1" data-name="katman 1"><path class="cls-2" d="M9.67,12.19a.57.57,0,0,1-.44-.2.6.6,0,0,1-.15-.46.62.62,0,0,1,.25-.41h0a1.68,1.68,0,0,0,.57-.88.62.62,0,0,1,.53-.48h.09A.6.6,0,0,1,11,10a.53.53,0,0,1,.14.43A2.69,2.69,0,0,1,10.19,12a.78.78,0,0,1-.45.21H9.67ZM9.72,12Zm.79-1.77h0a.17.17,0,0,0-.14.13,2,2,0,0,1-.76,1.16.17.17,0,0,0-.07.11.21.21,0,0,0,0,.11.19.19,0,0,0,.13.05h0a.51.51,0,0,0,.22-.11,2.3,2.3,0,0,0,.75-1.3.12.12,0,0,0,0-.1.16.16,0,0,0-.11-.05Z"/><path class="cls-2" d="M9.66,14.23A2.65,2.65,0,0,1,7.06,12a.23.23,0,0,1,.19-.25A.22.22,0,0,1,7.5,12,2.25,2.25,0,0,0,8,13.06a2.18,2.18,0,0,0,1.89.72,2.46,2.46,0,0,0,1.31-.58,4.28,4.28,0,0,0,1.47-2.67,2.11,2.11,0,0,0-.53-1.63,2.23,2.23,0,0,0-1.56-.76,1.88,1.88,0,0,0-.34,0A2.2,2.2,0,0,0,8.41,9.67a.68.68,0,0,1-.18.28,2.25,2.25,0,0,0-.64,1,.22.22,0,0,1-.28.14.22.22,0,0,1-.14-.28,2.73,2.73,0,0,1,.76-1.13A.21.21,0,0,0,8,9.53a2.64,2.64,0,0,1,2.23-1.81,2.56,2.56,0,0,1,2.29.89,2.59,2.59,0,0,1,.63,2,4.79,4.79,0,0,1-1.63,3,2.91,2.91,0,0,1-1.54.68Z"/><path class="cls-2" d="M9.67,13.21a1.59,1.59,0,0,1-1.2-.54,1.55,1.55,0,0,1-.4-1.26,1.63,1.63,0,0,1,.68-1.13l0,0A1,1,0,0,0,8.92,10h0a1.64,1.64,0,0,1,1.41-1.28h.25a1.6,1.6,0,0,1,1.15.55,1.58,1.58,0,0,1,.39,1.19,3.71,3.71,0,0,1-1.26,2.28,1.87,1.87,0,0,1-1,.45Zm.84-4h-.13a1.19,1.19,0,0,0-1,.93h0a1.15,1.15,0,0,1-.28.48L9,10.64a1.24,1.24,0,0,0-.5.83,1.19,1.19,0,0,0,.3.91,1.13,1.13,0,0,0,1,.38h0a1.46,1.46,0,0,0,.76-.34,3.19,3.19,0,0,0,1.11-2,1.14,1.14,0,0,0-.28-.86,1.16,1.16,0,0,0-.84-.4Z"/><path class="cls-2" d="M9.47,16.29a3.93,3.93,0,0,1-1.36-.23A.22.22,0,0,1,8,15.78a.21.21,0,0,1,.28-.13,3.57,3.57,0,0,0,1.59.18h0a5.47,5.47,0,0,0,2.59-1l.2-.16a.63.63,0,0,1,.79,0,4.34,4.34,0,0,0,1.35.7.21.21,0,0,1,.15.27.22.22,0,0,1-.27.15A4.85,4.85,0,0,1,13.2,15,.19.19,0,0,0,13,15l-.22.17a5.9,5.9,0,0,1-2.8,1.08h0A3.31,3.31,0,0,1,9.47,16.29Z"/><path class="cls-2" d="M9.47,15.27a3.25,3.25,0,0,1-2-.72.22.22,0,0,1,0-.31.21.21,0,0,1,.31,0,2.71,2.71,0,0,0,2,.62A4.4,4.4,0,0,0,11.87,14a4.18,4.18,0,0,0,.91-.92.45.45,0,0,1,.37-.19.44.44,0,0,1,.35.21,3.65,3.65,0,0,0,.5.67,2.49,2.49,0,0,0,1.16.66.21.21,0,0,1,.16.26.21.21,0,0,1-.26.16,2.76,2.76,0,0,1-1.38-.78,3.57,3.57,0,0,1-.55-.73,4.61,4.61,0,0,1-1,1,4.82,4.82,0,0,1-2.34.89Z"/><path class="cls-2" d="M10.26,17.31H10.2a.22.22,0,0,1,0-.44h.06a11.48,11.48,0,0,0,1.28-.07,15.19,15.19,0,0,0,1.55-.26.21.21,0,0,1,.26.17.22.22,0,0,1-.16.26c-.55.12-1.09.21-1.6.27A12.36,12.36,0,0,1,10.26,17.31Z"/><path class="cls-2" d="M15.22,13.49h0a1.57,1.57,0,0,1-.9-.71,2.72,2.72,0,0,1-.5-1.69,4.14,4.14,0,0,0-1-3,3.27,3.27,0,0,0-2.34-1,3.83,3.83,0,0,0-1.27.18.22.22,0,0,1-.28-.14.22.22,0,0,1,.14-.28,4,4,0,0,1,1.43-.2,3.69,3.69,0,0,1,2.64,1.17,4.52,4.52,0,0,1,1.1,3.34,2.31,2.31,0,0,0,.42,1.42,1.17,1.17,0,0,0,.6.52.23.23,0,0,1,.19.25A.22.22,0,0,1,15.22,13.49Z"/><path class="cls-2" d="M15.24,12a.2.2,0,0,1-.11,0,1,1,0,0,1-.35-.83c0-.33-.06-1.16-.06-1.17a.22.22,0,0,1,.21-.24.21.21,0,0,1,.23.2s.07.87.06,1.22a.55.55,0,0,0,.14.44.22.22,0,0,1,.07.3A.21.21,0,0,1,15.24,12Z"/><path class="cls-2" d="M4.49,9.43a.36.36,0,0,1,0-.11,7,7,0,1,1,9.76,9,.3.3,0,1,1-.28-.54A6.44,6.44,0,1,0,5.07,9.55a.29.29,0,0,1-.4.16A.31.31,0,0,1,4.49,9.43Z"/><path class="cls-2" d="M2,12.05A9,9,0,0,1,8.14,3.48a.3.3,0,1,1,.19.57A8.44,8.44,0,0,0,4.78,17.78a.3.3,0,0,1-.45.41A9.06,9.06,0,0,1,2,12.05Z"/><g class="cls-3"><path class="cls-2" d="M4,12.06a.3.3,0,1,1,.6,0A6.46,6.46,0,0,0,11,18.51a.3.3,0,0,1,0,.6A7,7,0,0,1,4,12.06Z"/></g><g class="cls-3"><path class="cls-2" d="M6.25,19.6a.28.28,0,0,1,0-.15.31.31,0,0,1,.42-.11,8.45,8.45,0,0,0,12.16-4.2.3.3,0,0,1,.39-.17.29.29,0,0,1,.17.39,9,9,0,0,1-13,4.5A.28.28,0,0,1,6.25,19.6Z"/></g><g class="cls-3"><path class="cls-2" d="M10.71,3.32A.3.3,0,0,1,11,3a9.06,9.06,0,0,1,9,9.06.3.3,0,0,1-.3.3.29.29,0,0,1-.3-.3A8.47,8.47,0,0,0,11,3.62.3.3,0,0,1,10.71,3.32Z"/></g><path class="cls-4" d="M16.56,1.45a.24.24,0,0,0-.17-.3A23,23,0,0,0,11.72.42l-.28,0,.17,2h.21c.65,0,1.3.12,1.93.21a.68.68,0,0,0,.2.27.73.73,0,0,0,1-.08.74.74,0,0,0-.08-1,.75.75,0,0,0-1,.09.87.87,0,0,0-.14.27c-.55-.09-1.1-.15-1.66-.19L12,.91a22.32,22.32,0,0,1,4.3.71A.24.24,0,0,0,16.56,1.45Z"/><path class="cls-4" d="M6,2.62A.33.33,0,0,0,5.77,3a.33.33,0,0,0,.15.16.3.3,0,0,0,.26,0c.84-.33,1.69-.63,2.55-.88a.81.81,0,0,0,.34.29.93.93,0,0,0,1.26-.41.94.94,0,0,0-1.68-.86,1,1,0,0,0-.1.38C7.68,2,6.8,2.28,6,2.62Z"/><path class="cls-4" d="M10.73,21.9a.85.85,0,0,0,0,1.7.86.86,0,0,0,.85-.79,21.07,21.07,0,0,0,4.93-1.23.24.24,0,0,0,.14-.31.24.24,0,0,0-.31-.14,21,21,0,0,1-4.87,1.21A.84.84,0,0,0,10.73,21.9Zm0,1.21a.36.36,0,0,1-.36-.36.37.37,0,0,1,.37-.36.36.36,0,0,1,.36.36A.37.37,0,0,1,10.72,23.11Z"/></g></g></svg>